<svg width="117" height="70" viewBox="0 0 117 70" fill="none" xmlns="http://www.w3.org/2000/svg">
<path d="M23.9323 69.1493L21.6101 60.0125L3.2699 64.6737L0.846008 55.1367L15.5023 21.734L22.7718 19.8864L29.8396 47.6967L35.7084 46.2052L38.1491 55.8088L32.2803 57.3003L34.6025 66.4371L23.9323 69.1493ZM11.3666 52.3919L20.4369 50.0869L17.4366 38.2824L11.3666 52.3919Z" fill="#263238"/>
<path d="M76.4598 38.6481C76.4598 41.676 76.0005 44.4627 75.0835 47.0089C74.1653 49.5551 72.9038 51.7568 71.2982 53.6149C69.6919 55.4729 67.7998 56.918 65.6217 57.9499C63.442 58.9821 61.0679 59.4983 58.4992 59.4983C55.9295 59.4983 53.5448 58.9821 51.3427 57.9499C49.1406 56.9177 47.2366 55.4725 45.6314 53.6149C44.025 51.7568 42.7755 49.5551 41.8813 47.0089C40.9867 44.4627 40.5394 41.676 40.5394 38.6481C40.5394 35.6206 40.9867 32.8336 41.8813 30.2877C42.7759 27.7415 44.025 25.5398 45.6314 23.6818C47.2366 21.8237 49.1406 20.3681 51.3427 19.3123C53.5448 18.2577 55.9295 17.7296 58.4992 17.7296C61.0679 17.7296 63.4416 18.2577 65.6217 19.3123C67.7998 20.3681 69.6919 21.8237 71.2982 23.6818C72.9038 25.5398 74.1653 27.7415 75.0835 30.2877C76.0005 32.8336 76.4598 35.6206 76.4598 38.6481ZM65.3808 38.6481C65.3808 35.4377 64.7379 32.8336 63.454 30.8379C62.1689 28.8426 60.5181 27.8448 58.4996 27.8448C56.3891 27.8448 54.7031 28.8426 53.442 30.8379C52.1797 32.8336 51.5496 35.4377 51.5496 38.6481C51.5496 41.8597 52.1797 44.4522 53.442 46.424C54.7031 48.3968 56.3891 49.3831 58.4996 49.3831C60.5181 49.3831 62.1689 48.3972 63.454 46.424C64.7383 44.4522 65.3808 41.8597 65.3808 38.6481Z" fill="#263238"/>
<path d="M96.2152 67.3885L97.7228 58.0827L79.0434 55.0563L80.6172 45.3427L107.361 20.5372L114.765 21.7366L110.176 50.0619L116.154 51.0302L114.569 60.8117L108.592 59.8435L107.084 69.1493L96.2152 67.3885ZM91.3603 47.0138L100.598 48.5105L102.546 36.4875L91.3603 47.0138Z" fill="#263238"/>
<path d="M43.0444 11.1004C42.2586 11.1004 41.5462 10.9467 40.9066 10.6396C40.2667 10.3326 39.7181 9.92456 39.2599 9.41592C38.8014 8.90765 38.4465 8.32571 38.1948 7.67121C37.9431 7.01671 37.817 6.34688 37.817 5.66171C37.817 4.94662 37.9502 4.26183 38.2172 3.60695C38.4839 2.95245 38.8519 2.37313 39.3201 1.86935C39.7884 1.36557 40.3449 0.96539 40.9897 0.66806C41.6341 0.371104 42.3342 0.222626 43.0897 0.222626C43.8653 0.222626 44.5726 0.381201 45.2125 0.698353C45.852 1.01551 46.3984 1.43102 46.8517 1.9449C47.305 2.45877 47.6573 3.04296 47.9094 3.69746C48.1611 4.35233 48.2871 5.01693 48.2871 5.692C48.2871 6.40746 48.1559 7.08927 47.8944 7.73928C47.6323 8.38892 47.2699 8.96301 46.8065 9.46155C46.3431 9.96009 45.7892 10.358 45.1448 10.655C44.4996 10.9519 43.7999 11.1004 43.0444 11.1004ZM39.932 5.66133C39.932 6.12472 40.0023 6.57315 40.1433 7.00586C40.2843 7.43896 40.4881 7.82193 40.7552 8.15404C41.0218 8.48653 41.3494 8.75319 41.7373 8.95478C42.1247 9.15636 42.5657 9.25697 43.0594 9.25697C43.5628 9.25697 44.0086 9.15375 44.3964 8.9473C44.7843 8.74122 45.1115 8.46633 45.3785 8.12375C45.6452 7.78154 45.8468 7.39632 45.9829 6.96809C46.1191 6.53986 46.1868 6.10452 46.1868 5.66096C46.1868 5.19795 46.1135 4.74952 45.9676 4.31643C45.8214 3.88334 45.6149 3.50074 45.3483 3.16825C45.0812 2.83576 44.754 2.57172 44.3665 2.375C43.9787 2.17865 43.543 2.08028 43.0598 2.08028C42.556 2.08028 42.1079 2.18351 41.7148 2.38996C41.3221 2.5964 40.9949 2.8683 40.7331 3.20565C40.4709 3.54337 40.2723 3.92597 40.1362 4.35383C40.0001 4.78281 39.932 5.21814 39.932 5.66133Z" fill="#263238"/>
<path d="M53.3485 11.176C52.7037 11.176 52.1248 11.0653 51.6113 10.8435C51.0974 10.6221 50.6617 10.3221 50.3041 9.94475C49.9466 9.56701 49.6721 9.1313 49.4806 8.63762C49.2891 8.14431 49.1934 7.6252 49.1934 7.08141C49.1934 6.52751 49.2891 6.00391 49.4806 5.51023C49.6717 5.01692 49.9466 4.58122 50.3041 4.20348C50.6617 3.82574 51.0974 3.52616 51.6113 3.30438C52.1248 3.08297 52.7037 2.97189 53.3485 2.97189C53.9929 2.97189 54.5696 3.08297 55.0786 3.30438C55.5869 3.52616 56.0204 3.82574 56.3779 4.20348C56.7354 4.58122 57.01 5.01692 57.2014 5.51023C57.3926 6.00391 57.4883 6.52751 57.4883 7.08141C57.4883 7.6252 57.3926 8.14431 57.2014 8.63762C57.01 9.1313 56.7381 9.56664 56.3858 9.94475C56.0331 10.3225 55.6 10.6224 55.0865 10.8435C54.5722 11.0649 53.9929 11.176 53.3485 11.176ZM51.2784 7.08141C51.2784 7.43409 51.3315 7.75386 51.437 8.04071C51.5428 8.32795 51.6887 8.57703 51.8749 8.78871C52.0612 9.00002 52.2804 9.16384 52.5321 9.27978C52.7838 9.39572 53.0557 9.45369 53.3481 9.45369C53.6402 9.45369 53.9121 9.39572 54.1638 9.27978C54.4155 9.16421 54.6347 9.0004 54.8209 8.78871C55.0072 8.57703 55.1534 8.32533 55.2589 8.03324C55.3647 7.74114 55.4175 7.41913 55.4175 7.06644C55.4175 6.72423 55.3644 6.40708 55.2589 6.11462C55.1531 5.82252 55.0072 5.57082 54.8209 5.35914C54.6343 5.14745 54.4152 4.98401 54.1638 4.86807C53.9121 4.75213 53.6402 4.69416 53.3481 4.69416C53.0557 4.69416 52.7838 4.75475 52.5321 4.87555C52.2804 4.99636 52.0612 5.16279 51.8749 5.3741C51.6883 5.58578 51.5425 5.83748 51.437 6.12957C51.3311 6.42204 51.2784 6.7392 51.2784 7.08141Z" fill="#263238"/>
<path d="M63.5912 11.176C62.9667 11.176 62.4229 11.0376 61.9598 10.7604C61.4965 10.4837 61.1337 10.1086 60.8719 9.63508V14.2431H58.8474V3.10803H60.6149V4.46752C60.907 4.00451 61.2848 3.63911 61.7482 3.37207C62.2112 3.10541 62.7452 2.97189 63.3493 2.97189C63.8833 2.97189 64.3766 3.08035 64.8299 3.2969C65.2832 3.51345 65.6737 3.80554 66.0009 4.17318C66.3282 4.54082 66.5851 4.97391 66.7717 5.47246C66.958 5.971 67.0511 6.49759 67.0511 7.05148C67.0511 7.62557 66.9655 8.16451 66.7942 8.66791C66.6229 9.17169 66.3835 9.61002 66.0765 9.98252C65.769 10.3554 65.404 10.6471 64.981 10.8588C64.5584 11.0701 64.095 11.176 63.5912 11.176ZM62.9117 9.45369C63.2139 9.45369 63.4932 9.38824 63.7502 9.25734C64.0067 9.12644 64.2259 8.95028 64.4073 8.7285C64.5883 8.50709 64.7293 8.25015 64.8303 7.95769C64.9313 7.66559 64.9814 7.36377 64.9814 7.05148C64.9814 6.719 64.926 6.40933 64.8153 6.12247C64.7042 5.83524 64.5509 5.58615 64.3546 5.37447C64.1582 5.16316 63.9263 4.99673 63.6597 4.87593C63.3926 4.75513 63.1032 4.69454 62.7912 4.69454C62.5998 4.69454 62.4034 4.72745 62.2022 4.7929C62.0006 4.85835 61.8144 4.95148 61.6431 5.07265C61.4718 5.19345 61.3184 5.33482 61.1823 5.49564C61.0465 5.65684 60.9429 5.83337 60.8726 6.02448V7.88289C61.054 8.33618 61.3311 8.7113 61.7037 9.00825C62.0754 9.30521 62.4786 9.45369 62.9117 9.45369Z" fill="#263238"/>
<path d="M71.4175 11.176C70.7529 11.176 70.1029 11.0701 69.4686 10.8588C68.8339 10.6475 68.2901 10.3449 67.8369 9.95224L68.5923 8.68326C69.0759 9.02585 69.5468 9.28503 70.0049 9.46118C70.4635 9.63771 70.919 9.7256 71.3723 9.7256C71.7747 9.7256 72.0922 9.65005 72.3241 9.49896C72.5556 9.34786 72.6716 9.13131 72.6716 8.84932C72.6716 8.56732 72.5358 8.36087 72.2635 8.22997C71.9916 8.09907 71.5484 7.94798 70.9339 7.77669C70.4204 7.63569 69.9821 7.49955 69.6193 7.36865C69.2566 7.23775 68.9645 7.08927 68.7431 6.92284C68.5213 6.75679 68.3605 6.5653 68.2595 6.34875C68.1585 6.13221 68.1087 5.87265 68.1087 5.57046C68.1087 5.16766 68.1865 4.80525 68.3429 4.48249C68.4988 4.16048 68.718 3.88559 69 3.65894C69.282 3.4323 69.6122 3.25877 69.9896 3.13796C70.3673 3.01716 70.7772 2.95657 71.2208 2.95657C71.8151 2.95657 72.3712 3.04222 72.8903 3.21351C73.4091 3.3848 73.8848 3.66156 74.3179 4.04454L73.5018 5.26827C73.099 4.96608 72.7089 4.74467 72.3308 4.60367C71.9531 4.46267 71.578 4.39236 71.2055 4.39236C70.8629 4.39236 70.5757 4.46305 70.3442 4.60367C70.1123 4.74467 69.9963 4.97131 69.9963 5.2836C69.9963 5.4246 70.024 5.54054 70.0797 5.63105C70.1347 5.72156 70.2234 5.80234 70.3442 5.87265C70.465 5.94334 70.6235 6.01141 70.8199 6.07648C71.0162 6.14231 71.2604 6.21 71.5525 6.28031C72.0963 6.42131 72.562 6.56231 72.9498 6.7033C73.3376 6.8443 73.6548 7.0055 73.9016 7.18651C74.1485 7.3679 74.3299 7.57697 74.4458 7.81334C74.5614 8.05008 74.6193 8.33469 74.6193 8.66718C74.6193 9.44286 74.3325 10.0547 73.758 10.5028C73.1854 10.9519 72.4045 11.176 71.4175 11.176Z" fill="#263238"/>
<path d="M76.3274 6.9909V0.191956H78.3519V6.9909H76.3274ZM76.3274 11.0249V8.74347H78.3519V11.0249H76.3274Z" fill="#263238"/>
</svg>
