<svg width="111" height="96" viewBox="0 0 111 96" fill="none" xmlns="http://www.w3.org/2000/svg">
<path d="M55.2048 43.378H41.9233V44.466H55.2048V43.378Z" fill="#37474F"/>
<path d="M55.2048 44.7951H41.9233V45.8831H55.2048V44.7951Z" fill="#37474F"/>
<path d="M55.2048 46.2126H41.9233V47.3005H55.2048V46.2126Z" fill="#37474F"/>
<path d="M55.2048 47.6297H41.9233V48.7176H55.2048V47.6297Z" fill="#37474F"/>
<path d="M55.2048 49.0467H41.9233V50.1347H55.2048V49.0467Z" fill="#37474F"/>
<path d="M60.9543 77.3181H35.7033V78.4061H60.9543V77.3181Z" fill="#37474F"/>
<path d="M60.9543 78.7352H35.7033V79.8232H60.9543V78.7352Z" fill="#37474F"/>
<path d="M60.9543 80.1523H35.7033V81.2403H60.9543V80.1523Z" fill="#37474F"/>
<path d="M60.9543 81.5694H35.7033V82.6574H60.9543V81.5694Z" fill="#37474F"/>
<path d="M60.9543 82.9869H35.7033V84.0748H60.9543V82.9869Z" fill="#37474F"/>
<path d="M24.6239 34.3844C24.6363 34.2375 19.0974 32.382 19.0974 32.382L19.4246 13.3507L26.7696 11.7746L24.6239 34.3844Z" fill="#34CAA5"/>
<path opacity="0.2" d="M24.6239 34.3844C24.6363 34.2375 19.0974 32.382 19.0974 32.382L19.4246 13.3507L26.7696 11.7746L24.6239 34.3844Z" fill="black"/>
<path d="M75.3589 41.8547C75.3978 41.7122 81.2375 41.8764 81.2375 41.8764L87.4795 23.8949L81.1256 19.8875L75.3589 41.8547Z" fill="#34CAA5"/>
<path opacity="0.2" d="M75.3589 41.8547C75.3978 41.7122 81.2375 41.8764 81.2375 41.8764L87.4795 23.8949L81.1256 19.8875L75.3589 41.8547Z" fill="black"/>
<path d="M23.5577 41.3925C23.5577 41.3925 25.6113 10.613 27.4125 0.487701C27.4125 0.487701 64.5945 3.29981 84.6667 10.9717C84.6667 10.9717 74.3185 46.9235 73.7829 48.7075C73.7829 48.7075 47.5999 43.5497 23.5577 41.3925Z" fill="#34CAA5"/>
<path opacity="0.1" d="M56.7461 4.59796C56.1417 8.30393 55.5298 12.0088 54.8966 15.7099L52.9803 26.8098L52.877 26.6531L65.3353 29.6126L71.558 31.1206L77.7735 32.6584L71.5251 31.26L65.2837 29.8321L52.8142 26.9194L52.6882 26.8899L52.711 26.7623L54.6951 15.6743C55.3619 11.9792 56.0504 8.28785 56.7461 4.59796Z" fill="black"/>
<path opacity="0.1" d="M55.3791 6.71032C55.3858 7.04991 55.1151 7.39885 54.7261 7.43289C54.5376 7.45084 54.3327 7.39062 54.1793 7.25711C54.026 7.12359 53.9343 6.91789 53.9332 6.71032C53.9343 6.50275 54.0252 6.29667 54.179 6.16315C54.3319 6.02851 54.5376 5.96942 54.7261 5.987C55.1155 6.02104 55.3858 6.37072 55.3791 6.71032ZM55.3791 6.71032C55.3776 6.53902 55.3017 6.37073 55.1742 6.26264C55.0463 6.15455 54.8787 6.11042 54.7265 6.128C54.4127 6.16428 54.2092 6.4459 54.2137 6.71032C54.2089 6.97473 54.4119 7.25785 54.7265 7.29338C54.8787 7.31059 55.0466 7.26646 55.1745 7.15837C55.3017 7.04991 55.3776 6.88161 55.3791 6.71032Z" fill="black"/>
<path opacity="0.1" d="M54.7261 11.2899C54.7328 11.6295 54.4621 11.9788 54.0731 12.0125C53.8846 12.0305 53.6797 11.9702 53.5263 11.8367C53.373 11.7032 53.2813 11.4975 53.2802 11.2899C53.2813 11.0824 53.3722 10.8763 53.5259 10.7428C53.6789 10.6081 53.8846 10.549 54.0731 10.5666C54.4628 10.601 54.7332 10.9507 54.7261 11.2899ZM54.7261 11.2899C54.7246 11.1186 54.6487 10.9503 54.5212 10.8423C54.3932 10.7342 54.2257 10.69 54.0735 10.7076C53.7597 10.7439 53.5562 11.0255 53.5607 11.2899C53.5559 11.5544 53.7589 11.8375 54.0735 11.873C54.2257 11.8902 54.3936 11.8461 54.5215 11.7376C54.6491 11.6299 54.7246 11.4612 54.7261 11.2899Z" fill="black"/>
<path opacity="0.1" d="M53.922 16.1291C53.9288 16.4687 53.658 16.818 53.269 16.8517C53.0805 16.8697 52.8756 16.8098 52.7222 16.6759C52.5689 16.5424 52.4773 16.3367 52.4761 16.1291C52.4773 15.9216 52.5681 15.7155 52.7219 15.582C52.8748 15.4473 53.0805 15.3882 53.269 15.4058C53.6587 15.4402 53.9291 15.7895 53.922 16.1291ZM53.922 16.1291C53.9205 15.9578 53.8446 15.7895 53.7171 15.6814C53.5892 15.5734 53.4216 15.5292 53.2694 15.5468C52.9556 15.5831 52.7521 15.8647 52.7566 16.1291C52.7518 16.3935 52.9549 16.6767 53.2694 16.7122C53.4216 16.7298 53.5895 16.6853 53.7174 16.5772C53.8446 16.4687 53.9205 16.3004 53.922 16.1291Z" fill="black"/>
<path opacity="0.1" d="M53.1179 20.9683C53.125 21.3079 52.8538 21.6568 52.4649 21.6909C52.2764 21.7085 52.0714 21.6486 51.9181 21.5151C51.7647 21.3816 51.6731 21.1759 51.672 20.9683C51.6727 20.7607 51.7644 20.5547 51.9177 20.4211C52.0707 20.2865 52.2764 20.2274 52.4649 20.245C52.8546 20.279 53.125 20.6287 53.1179 20.9683ZM53.1179 20.9683C53.1164 20.797 53.0405 20.6287 52.9125 20.5206C52.7846 20.4126 52.6171 20.3684 52.4649 20.386C52.1511 20.4223 51.9476 20.7039 51.9521 20.9683C51.9473 21.2327 52.1503 21.5158 52.4649 21.5514C52.6171 21.5686 52.785 21.5244 52.9129 21.4164C53.0405 21.3079 53.1164 21.1396 53.1179 20.9683Z" fill="black"/>
<path opacity="0.1" d="M55.8578 28.6858C55.8649 29.0254 55.5938 29.3743 55.2048 29.4084C55.0163 29.426 54.8114 29.3661 54.658 29.2326C54.5047 29.0991 54.413 28.8934 54.4119 28.6858C54.4127 28.4782 54.5039 28.2722 54.6576 28.1386C54.8106 28.004 55.0163 27.9449 55.2048 27.9625C55.5941 27.9965 55.8645 28.3462 55.8578 28.6858ZM55.8578 28.6858C55.8563 28.5145 55.7804 28.3462 55.6525 28.2381C55.5246 28.13 55.357 28.0859 55.2048 28.1035C54.891 28.1398 54.6876 28.4214 54.6921 28.6858C54.6872 28.9502 54.8903 29.2333 55.2048 29.2689C55.357 29.2865 55.525 29.2419 55.6529 29.1335C55.7804 29.0254 55.8559 28.8571 55.8578 28.6858Z" fill="black"/>
<path opacity="0.1" d="M60.4255 29.8C60.4326 30.1395 60.1615 30.4889 59.7725 30.5225C59.584 30.5401 59.379 30.4803 59.2257 30.3467C59.0724 30.2132 58.9807 30.0075 58.9796 29.8C58.9807 29.5924 59.072 29.3863 59.2253 29.2528C59.3783 29.1181 59.584 29.0591 59.7725 29.0766C60.1622 29.111 60.4326 29.4604 60.4255 29.8ZM60.4255 29.8C60.424 29.6287 60.3481 29.4604 60.2205 29.3523C60.0926 29.2442 59.9251 29.2001 59.7729 29.2176C59.4591 29.2539 59.2556 29.5355 59.2601 29.8C59.2553 30.0644 59.4583 30.3475 59.7729 30.383C59.9251 30.4002 60.093 30.3561 60.2209 30.2476C60.3481 30.1395 60.424 29.9712 60.4255 29.8Z" fill="black"/>
<path opacity="0.1" d="M64.9935 30.9145C65.0002 31.2541 64.7295 31.603 64.3405 31.637C64.152 31.6546 63.947 31.5948 63.7937 31.4613C63.6404 31.3277 63.5487 31.122 63.5476 30.9145C63.5487 30.7069 63.6396 30.5008 63.7933 30.3673C63.9463 30.2327 64.152 30.1736 64.3405 30.1911C64.7298 30.2252 65.0002 30.5749 64.9935 30.9145ZM64.9935 30.9145C64.992 30.7432 64.9161 30.5749 64.7885 30.4668C64.6606 30.3587 64.4931 30.3146 64.3409 30.3322C64.0271 30.3684 63.8236 30.65 63.8281 30.9145C63.8232 31.1789 64.0263 31.462 64.3409 31.4975C64.4931 31.5147 64.661 31.4706 64.7889 31.3621C64.9161 31.2541 64.9916 31.0854 64.9935 30.9145Z" fill="black"/>
<path opacity="0.1" d="M69.5612 32.0286C69.5683 32.3682 69.2971 32.7171 68.9082 32.7512C68.7197 32.7688 68.5147 32.7093 68.3614 32.5754C68.208 32.4419 68.1164 32.2362 68.1153 32.0286C68.1164 31.821 68.2073 31.615 68.361 31.4815C68.514 31.3468 68.7197 31.2877 68.9082 31.3053C69.2979 31.3393 69.5679 31.689 69.5612 32.0286ZM69.5612 32.0286C69.5597 31.8573 69.4838 31.689 69.3562 31.5809C69.2283 31.4729 69.0608 31.4287 68.9086 31.4463C68.5948 31.4826 68.3913 31.7642 68.3958 32.0286C68.3909 32.293 68.594 32.5762 68.9086 32.6117C69.0608 32.6289 69.2287 32.5848 69.3566 32.4767C69.4838 32.3682 69.5597 32.1999 69.5612 32.0286Z" fill="black"/>
<path opacity="0.1" d="M74.127 33.1929C74.1079 33.5321 73.811 33.8593 73.4205 33.8631C73.2313 33.8665 73.0315 33.7909 72.8887 33.6458C72.7458 33.5007 72.6703 33.289 72.6852 33.0818C72.702 32.875 72.809 32.6768 72.9725 32.5552C73.1355 32.4329 73.345 32.3895 73.5316 32.4217C73.9175 32.4856 74.1599 32.8552 74.127 33.1929ZM74.127 33.1929C74.1386 33.022 74.0757 32.8484 73.9568 32.7306C73.8375 32.6128 73.6737 32.556 73.5207 32.5619C73.2051 32.5739 72.9803 32.8391 72.9646 33.1031C72.9392 33.3664 73.1202 33.6641 73.431 33.724C73.5813 33.7531 73.7522 33.7221 73.888 33.6237C74.0238 33.5257 74.1124 33.3638 74.127 33.1929Z" fill="black"/>
<path opacity="0.1" d="M52.3138 25.8075C52.3205 26.1471 52.0498 26.4964 51.6608 26.5301C51.4723 26.548 51.2673 26.4882 51.114 26.3543C50.9607 26.2208 50.869 26.0151 50.8679 25.8075C50.869 25.5999 50.9603 25.3939 51.1136 25.2603C51.2666 25.1257 51.4723 25.0662 51.6608 25.0842C52.0505 25.1182 52.3209 25.4679 52.3138 25.8075ZM52.3138 25.8075C52.3123 25.6362 52.2364 25.4679 52.1085 25.3598C51.9806 25.2517 51.813 25.2076 51.6608 25.2252C51.347 25.2615 51.1436 25.5431 51.148 25.8075C51.1432 26.0719 51.3463 26.355 51.6608 26.3906C51.813 26.4078 51.9809 26.3636 52.1085 26.2552C52.2368 26.1471 52.3123 25.9788 52.3138 25.8075Z" fill="black"/>
<path opacity="0.2" d="M44.6214 33.8257C48.9575 29.9269 49.312 23.2512 45.4133 18.9151C41.5145 14.579 34.8388 14.2245 30.5027 18.1232C26.1666 22.022 25.8121 28.6977 29.7108 33.0338C33.6096 37.3699 40.2853 37.7244 44.6214 33.8257Z" fill="black"/>
<path d="M45.4779 28.9724C47.1334 24.5988 44.93 19.7113 40.5565 18.0558C36.1829 16.4003 31.2954 18.6037 29.6399 22.9772C27.9843 27.3508 30.1877 32.2383 34.5613 33.8938C38.9349 35.5493 43.8224 33.3459 45.4779 28.9724Z" fill="white"/>
<path d="M37.0517 22.8615L35.0721 22.5408L34.7515 24.5203L36.731 24.841L37.0517 22.8615Z" fill="#34CAA5"/>
<path d="M35.3926 20.5614L33.4131 20.2408L33.0924 22.2203L35.0719 22.541L35.3926 20.5614Z" fill="#34CAA5"/>
<path d="M43.3107 21.844L41.3312 21.5234L41.0105 23.5029L42.99 23.8235L43.3107 21.844Z" fill="#34CAA5"/>
<path d="M34.1172 28.4346L32.1376 28.114L31.817 30.0935L33.7965 30.4142L34.1172 28.4346Z" fill="#34CAA5"/>
<path d="M42.0352 29.7173L40.0557 29.3966L39.7351 31.3761L41.7146 31.6968L42.0352 29.7173Z" fill="#34CAA5"/>
<path d="M36.4174 26.776L34.4379 26.4553L34.1173 28.4349L36.0968 28.7555L36.4174 26.776Z" fill="#34CAA5"/>
<path d="M38.7141 25.1394L36.7346 24.8187L36.414 26.7982L38.3935 27.1189L38.7141 25.1394Z" fill="#34CAA5"/>
<path d="M41.0108 23.5028L39.0312 23.1821L38.7106 25.1616L40.6901 25.4823L41.0108 23.5028Z" fill="#34CAA5"/>
<path d="M40.3786 27.4161L38.3991 27.0954L38.0784 29.0749L40.058 29.3956L40.3786 27.4161Z" fill="#34CAA5"/>
<path d="M74.0645 37.0857C77.7603 32.5753 77.1 25.9228 72.5895 22.2269C68.079 18.5311 61.4265 19.1915 57.7307 23.7019C54.0348 28.2124 54.6952 34.8649 59.2057 38.5608C63.7161 42.2566 70.3687 41.5962 74.0645 37.0857Z" fill="#34CAA5"/>
<path opacity="0.2" d="M74.0645 37.0857C77.7603 32.5753 77.1 25.9228 72.5895 22.2269C68.079 18.5311 61.4265 19.1915 57.7307 23.7019C54.0348 28.2124 54.6952 34.8649 59.2057 38.5608C63.7161 42.2566 70.3687 41.5962 74.0645 37.0857Z" fill="black"/>
<path opacity="0.2" d="M76.1709 32.8413C76.1223 33.0493 76.0669 33.2501 76.0045 33.4509L55.424 29.0613C55.4726 28.694 55.5385 28.3268 55.6248 27.9561C56.9727 22.2844 62.665 18.7782 68.3405 20.1257C74.0126 21.4736 77.5188 27.1659 76.1709 32.8413Z" fill="black"/>
<path d="M69.1603 38.2132C73.4754 36.4104 75.512 31.4508 73.7092 27.1357C71.9064 22.8206 66.9468 20.784 62.6317 22.5869C58.3166 24.3897 56.28 29.3493 58.0829 33.6644C59.8857 37.9795 64.8452 40.016 69.1603 38.2132Z" fill="white"/>
<path d="M68.0291 25.7721L66.0781 25.3084L63.7703 35.0196L65.7213 35.4833L68.0291 25.7721Z" fill="#34CAA5"/>
<path d="M76.7835 32.6427L55.166 27.5051C56.5845 21.5368 62.5745 17.8492 68.5428 19.2674C74.5115 20.6863 78.2021 26.6744 76.7835 32.6427Z" fill="#34CAA5"/>
<path opacity="0.2" d="M76.7835 32.6427L55.166 27.5051C56.5845 21.5368 62.5745 17.8492 68.5428 19.2674C74.5115 20.6863 78.2021 26.6744 76.7835 32.6427Z" fill="black"/>
<path opacity="0.1" d="M47.5266 36.6748C47.5812 35.8307 47.8913 34.9746 48.5035 34.2977C48.8053 33.9566 49.2081 33.6888 49.6517 33.5257C50.0975 33.3619 50.5792 33.3331 51.0359 33.372C51.5007 33.4263 51.9753 33.5901 52.3628 33.8833C52.7428 34.1825 53.0341 34.5726 53.2054 34.9926C53.5581 35.8296 53.5966 36.7242 53.4257 37.5537C53.2851 36.7246 53.0708 35.9193 52.6815 35.2585C52.2951 34.5924 51.684 34.1784 50.9558 34.1141C50.2131 34.0217 49.4882 34.221 48.9044 34.7143C48.3206 35.2061 47.8748 35.9104 47.5266 36.6748Z" fill="black"/>
<path d="M26.4498 15.1392C26.5373 14.0112 26.6641 12.8884 26.7711 11.7631C26.8911 10.6396 27.0146 9.51644 27.1511 8.39556C27.2809 7.27356 27.4271 6.1538 27.5707 5.0333C27.7113 3.9128 27.8736 2.79528 28.024 1.6759L28.064 1.37708L28.367 1.39615C30.8032 1.54949 33.2342 1.74621 35.6618 1.99604C36.8755 2.12059 38.0876 2.26159 39.2982 2.41717C40.5066 2.59071 41.7169 2.75078 42.9182 2.97069L35.6188 2.51889L28.3269 2.04729L28.6699 1.76753C28.5042 2.88467 28.3501 4.00331 28.1747 5.11895C28.0019 6.23496 27.8318 7.35135 27.6455 8.4655C27.466 9.58039 27.2734 10.6938 27.077 11.8064C26.868 12.9172 26.6783 14.031 26.4498 15.1392Z" fill="white"/>
<path d="M28.2057 23.6723C28.4507 22.3162 29.0671 21.0241 29.8951 19.8987C30.1012 19.6156 30.3357 19.3541 30.5612 19.0849C30.8054 18.8328 31.0594 18.5889 31.31 18.3417C31.5833 18.1196 31.8594 17.8993 32.1399 17.6857C32.4379 17.4969 32.7323 17.2998 33.0352 17.1184C33.3542 16.965 33.6714 16.8072 33.9934 16.6613L34.9965 16.3143L36.0347 16.1C36.3833 16.0491 36.7374 16.0383 37.0871 16.0121C38.4949 15.9758 39.8805 16.2761 41.1521 16.7911C39.7986 16.5375 38.45 16.3969 37.1204 16.5237C35.7942 16.6471 34.5054 17.0436 33.3531 17.6928C32.1918 18.3268 31.1633 19.2012 30.2945 20.217C29.4295 21.238 28.7133 22.3944 28.2057 23.6723Z" fill="white"/>
<path d="M57.3314 26.5245C57.7615 25.2151 58.5502 24.0205 59.5256 23.0201C59.7687 22.7684 60.0373 22.5417 60.2979 22.3061C60.5743 22.0903 60.8597 21.8839 61.1421 21.6733C61.4435 21.4908 61.7472 21.3109 62.0546 21.1381C62.3759 20.9923 62.6945 20.8374 63.0199 20.6998C63.3573 20.5921 63.6931 20.4795 64.0319 20.3796L65.0735 20.1743L66.1316 20.1055C66.4839 20.1029 66.8358 20.1414 67.1859 20.1635C68.5854 20.322 69.9157 20.8109 71.1043 21.4964C69.7987 21.0585 68.4825 20.7327 67.1481 20.6751C65.8174 20.6145 64.4864 20.8292 63.2555 21.3132C62.018 21.7807 60.8784 22.5047 59.8776 23.3907C58.879 24.2827 58.0102 25.3288 57.3314 26.5245Z" fill="white"/>
<path d="M24.7387 60.3602C22.034 60.3602 16.1128 59.7521 12.3025 54.8531C7.42776 48.5856 9.18967 36.5592 9.26672 36.0502L11.3832 36.3715C11.3656 36.4871 9.68372 47.9992 13.9922 53.5388C18.2046 58.9547 25.845 58.1772 25.9217 58.1678L26.1625 60.2948C26.0791 60.3049 25.5552 60.3602 24.7387 60.3602Z" fill="#34CAA5"/>
<path opacity="0.4" d="M24.7387 60.3602C22.034 60.3602 16.1128 59.7521 12.3025 54.8531C7.42776 48.5856 9.18967 36.5592 9.26672 36.0502L11.3832 36.3715C11.3656 36.4871 9.68372 47.9992 13.9922 53.5388C18.2046 58.9547 25.845 58.1772 25.9217 58.1678L26.1625 60.2948C26.0791 60.3049 25.5552 60.3602 24.7387 60.3602Z" fill="white"/>
<path d="M12.0063 37.8279C11.6203 37.8279 11.2261 37.7957 10.8248 37.7306C7.25463 37.1524 5.6741 35.0161 4.97659 33.3256C4.27758 31.6314 4.11602 29.5819 4.49637 27.2347L9.02402 27.9685C8.7884 29.4226 8.85684 30.7043 9.21663 31.5764C9.47319 32.1988 9.97136 32.946 11.5582 33.203C12.2831 33.3204 13.0666 33.2583 13.8871 32.0208C14.5203 31.0656 14.9011 29.7655 15.0342 28.942L19.5618 29.6754C19.4571 30.3232 19.0132 32.5896 17.7098 34.5554C16.2923 36.6935 14.297 37.8279 12.0063 37.8279Z" fill="#34CAA5"/>
<path d="M29.2114 66.4867C29.2036 66.3891 25.3757 65.7776 25.3757 65.7776L23.5176 53.2841L28.1541 51.4527L29.2114 66.4867Z" fill="#34CAA5"/>
<path opacity="0.2" d="M29.2114 66.4867C29.2036 66.3891 25.3757 65.7776 25.3757 65.7776L23.5176 53.2841L28.1541 51.4527L29.2114 66.4867Z" fill="black"/>
<path d="M67.0587 66.5099C67.0688 66.4127 70.9094 65.8857 70.9094 65.8857L73.0431 53.4364L68.4481 51.5028L67.0587 66.5099Z" fill="#34CAA5"/>
<path opacity="0.2" d="M67.0587 66.5099C67.0688 66.4127 70.9094 65.8857 70.9094 65.8857L73.0431 53.4364L68.4481 51.5028L67.0587 66.5099Z" fill="black"/>
<path d="M27.6186 48.6552C27.6186 48.6552 58.5805 47.3312 69.0394 49.0744C69.0394 49.0744 65.9681 79.0341 65.8021 79.6153C65.8021 79.6153 35.0028 79.5322 30.1883 79.6153C30.1883 79.6153 27.5789 59.6934 27.6186 48.6552Z" fill="#34CAA5"/>
<path opacity="0.2" d="M37.0235 56.8648C37.0235 56.8648 53.9257 56.1972 59.6355 57.0761C59.6355 57.0761 57.9589 72.1835 57.8684 72.4763C57.8684 72.4763 41.0548 72.4345 38.4267 72.4763C38.426 72.4763 37.2711 62.1367 37.0235 56.8648Z" fill="black"/>
<path opacity="0.2" d="M39.3334 72.47C38.9463 72.47 38.6396 72.4748 38.4249 72.4775C38.4249 72.4775 37.2715 62.136 37.022 56.8641C37.022 56.8641 37.4065 56.8491 38.0778 56.8267L39.3334 72.47Z" fill="black"/>
<path d="M44.3188 60.5925C43.3714 60.294 42.362 60.8199 42.0635 61.7665C41.7647 62.7149 42.2913 63.7233 43.2387 64.0217C44.1852 64.3202 45.1935 63.7947 45.492 62.8473C45.7905 61.9011 45.2654 60.8909 44.3188 60.5925ZM45.2837 62.7815C45.0215 63.6141 44.1355 64.0756 43.3041 63.8134C42.4727 63.5512 42.0108 62.6656 42.2734 61.8331C42.5355 61.0017 43.4215 60.5398 44.2537 60.8023C45.084 61.0641 45.5459 61.9501 45.2837 62.7815ZM44.3188 60.5925C43.3714 60.294 42.362 60.8199 42.0635 61.7665C41.7647 62.7149 42.2913 63.7233 43.2387 64.0217C44.1852 64.3202 45.1935 63.7947 45.492 62.8473C45.7905 61.9011 45.2654 60.8909 44.3188 60.5925ZM45.2837 62.7815C45.0215 63.6141 44.1355 64.0756 43.3041 63.8134C42.4727 63.5512 42.0108 62.6656 42.2734 61.8331C42.5355 61.0017 43.4215 60.5398 44.2537 60.8023C45.084 61.0641 45.5459 61.9501 45.2837 62.7815ZM44.3188 60.5925C43.3714 60.294 42.362 60.8199 42.0635 61.7665C41.7647 62.7149 42.2913 63.7233 43.2387 64.0217C44.1852 64.3202 45.1935 63.7947 45.492 62.8473C45.7905 61.9011 45.2654 60.8909 44.3188 60.5925ZM45.2837 62.7815C45.0215 63.6141 44.1355 64.0756 43.3041 63.8134C42.4727 63.5512 42.0108 62.6656 42.2734 61.8331C42.5355 61.0017 43.4215 60.5398 44.2537 60.8023C45.084 61.0641 45.5459 61.9501 45.2837 62.7815ZM44.9179 58.6933C42.9204 58.0643 40.7934 59.1739 40.164 61.1685C39.5353 63.1641 40.6427 65.2926 42.6395 65.9213C44.634 66.5496 46.7629 65.4414 47.3916 63.4458C48.021 61.4512 46.9128 59.3217 44.9179 58.6933ZM45.7594 62.9311C45.415 64.0243 44.2466 64.6332 43.1545 64.2887C42.0624 63.9447 41.4536 62.7763 41.7976 61.6831C42.1421 60.5899 43.3112 59.9821 44.4033 60.3262C45.4946 60.6707 46.1035 61.839 45.7594 62.9311ZM45.492 62.8477C45.7905 61.9011 45.2654 60.8913 44.3188 60.5929C43.3714 60.2944 42.362 60.8203 42.0635 61.7669C41.7647 62.7153 42.2913 63.7236 43.2387 64.0221C44.1852 64.3205 45.1935 63.7951 45.492 62.8477ZM45.2837 62.7815C45.0215 63.6141 44.1355 64.0756 43.3041 63.8134C42.4727 63.5512 42.0108 62.6656 42.2734 61.8331C42.5355 61.0017 43.4215 60.5398 44.2537 60.8023C45.084 61.0641 45.5459 61.9501 45.2837 62.7815ZM44.3188 60.5925C43.3714 60.294 42.362 60.8199 42.0635 61.7665C41.7647 62.7149 42.2913 63.7233 43.2387 64.0217C44.1852 64.3202 45.1935 63.7947 45.492 62.8473C45.7905 61.9011 45.2654 60.8909 44.3188 60.5925ZM45.2837 62.7815C45.0215 63.6141 44.1355 64.0756 43.3041 63.8134C42.4727 63.5512 42.0108 62.6656 42.2734 61.8331C42.5355 61.0017 43.4215 60.5398 44.2537 60.8023C45.084 61.0641 45.5459 61.9501 45.2837 62.7815ZM44.3188 60.5925C43.3714 60.294 42.362 60.8199 42.0635 61.7665C41.7647 62.7149 42.2913 63.7233 43.2387 64.0217C44.1852 64.3202 45.1935 63.7947 45.492 62.8473C45.7905 61.9011 45.2654 60.8909 44.3188 60.5925ZM45.2837 62.7815C45.0215 63.6141 44.1355 64.0756 43.3041 63.8134C42.4727 63.5512 42.0108 62.6656 42.2734 61.8331C42.5355 61.0017 43.4215 60.5398 44.2537 60.8023C45.084 61.0641 45.5459 61.9501 45.2837 62.7815Z" fill="#34CAA5"/>
<path d="M43.3815 65.9901L41.9921 65.5521L41.7587 66.56L42.9948 66.9494L43.3815 65.9901Z" fill="#34CAA5"/>
<path d="M40.8843 64.6886L40.2111 63.3964L39.3337 63.9443L39.9321 65.0936L40.8843 64.6886Z" fill="#34CAA5"/>
<path d="M40.0387 62.0021L40.4763 60.6127L39.4688 60.3797L39.079 61.6154L40.0387 62.0021Z" fill="#34CAA5"/>
<path d="M41.3402 59.5049L42.6324 58.8321L42.0845 57.9543L40.9352 58.5531L41.3402 59.5049Z" fill="#34CAA5"/>
<path d="M44.0263 58.6593L45.4161 59.0972L45.6491 58.0893L44.4134 57.7L44.0263 58.6593Z" fill="#34CAA5"/>
<path d="M46.5239 59.9608L47.1967 61.253L48.0745 60.7054L47.4757 59.5561L46.5239 59.9608Z" fill="#34CAA5"/>
<path d="M47.3695 62.6472L46.9315 64.0367L47.9395 64.27L48.3288 63.034L47.3695 62.6472Z" fill="#34CAA5"/>
<path d="M46.068 65.1445L44.7755 65.8177L45.3234 66.6951L46.4727 66.0967L46.068 65.1445Z" fill="#34CAA5"/>
<path d="M50.4303 65.8805C49.87 65.5155 49.1202 65.6744 48.7555 66.2339C48.3901 66.7949 48.5494 67.544 49.1097 67.9091C49.6696 68.2737 50.4183 68.1151 50.7833 67.5549C51.148 66.9954 50.9902 66.2451 50.4303 65.8805ZM50.6603 67.4745C50.3398 67.967 49.6815 68.1061 49.1897 67.7856C48.6979 67.4655 48.5588 66.8073 48.8793 66.3151C49.1995 65.8233 49.8577 65.6841 50.3499 66.0046C50.8413 66.3248 50.9805 66.9827 50.6603 67.4745ZM50.4303 65.8805C49.87 65.5155 49.1202 65.6744 48.7555 66.2339C48.3901 66.7949 48.5494 67.544 49.1097 67.9091C49.6696 68.2737 50.4183 68.1151 50.7833 67.5549C51.148 66.9954 50.9902 66.2451 50.4303 65.8805ZM50.6603 67.4745C50.3398 67.967 49.6815 68.1061 49.1897 67.7856C48.6979 67.4655 48.5588 66.8073 48.8793 66.3151C49.1995 65.8233 49.8577 65.6841 50.3499 66.0046C50.8413 66.3248 50.9805 66.9827 50.6603 67.4745ZM50.4303 65.8805C49.87 65.5155 49.1202 65.6744 48.7555 66.2339C48.3901 66.7949 48.5494 67.544 49.1097 67.9091C49.6696 68.2737 50.4183 68.1151 50.7833 67.5549C51.148 66.9954 50.9902 66.2451 50.4303 65.8805ZM50.6603 67.4745C50.3398 67.967 49.6815 68.1061 49.1897 67.7856C48.6979 67.4655 48.5588 66.8073 48.8793 66.3151C49.1995 65.8233 49.8577 65.6841 50.3499 66.0046C50.8413 66.3248 50.9805 66.9827 50.6603 67.4745ZM51.1622 64.7574C49.9804 63.9884 48.4006 64.3231 47.6317 65.5031C46.8631 66.6838 47.1963 68.2644 48.3774 69.0329C49.5574 69.8011 51.1383 69.4671 51.9068 68.2868C52.6758 67.1068 52.3422 65.5256 51.1622 64.7574ZM50.9415 67.6577C50.5204 68.3044 49.6527 68.488 49.0069 68.0673C48.361 67.6465 48.1769 66.7788 48.5981 66.1322C49.0192 65.4855 49.8872 65.3027 50.5331 65.7234C51.1787 66.1438 51.3623 67.0115 50.9415 67.6577ZM50.7833 67.5549C51.148 66.995 50.9902 66.2455 50.4303 65.8809C49.87 65.5158 49.1202 65.6748 48.7555 66.2343C48.3901 66.7953 48.5494 67.5444 49.1097 67.9094C49.6696 68.2741 50.4183 68.1151 50.7833 67.5549ZM50.6603 67.4745C50.3398 67.967 49.6815 68.1061 49.1897 67.7856C48.6979 67.4655 48.5588 66.8073 48.8793 66.3151C49.1995 65.8233 49.8577 65.6841 50.3499 66.0046C50.8413 66.3248 50.9805 66.9827 50.6603 67.4745ZM50.4303 65.8805C49.87 65.5155 49.1202 65.6744 48.7555 66.2339C48.3901 66.7949 48.5494 67.544 49.1097 67.9091C49.6696 68.2737 50.4183 68.1151 50.7833 67.5549C51.148 66.9954 50.9902 66.2451 50.4303 65.8805ZM50.6603 67.4745C50.3398 67.967 49.6815 68.1061 49.1897 67.7856C48.6979 67.4655 48.5588 66.8073 48.8793 66.3151C49.1995 65.8233 49.8577 65.6841 50.3499 66.0046C50.8413 66.3248 50.9805 66.9827 50.6603 67.4745ZM50.4303 65.8805C49.87 65.5155 49.1202 65.6744 48.7555 66.2339C48.3901 66.7949 48.5494 67.544 49.1097 67.9091C49.6696 68.2737 50.4183 68.1151 50.7833 67.5549C51.148 66.9954 50.9902 66.2451 50.4303 65.8805ZM50.6603 67.4745C50.3398 67.967 49.6815 68.1061 49.1897 67.7856C48.6979 67.4655 48.5588 66.8073 48.8793 66.3151C49.1995 65.8233 49.8577 65.6841 50.3499 66.0046C50.8413 66.3248 50.9805 66.9827 50.6603 67.4745Z" fill="#DBDBDB"/>
<path d="M48.8464 69.2113L48.0243 68.6761L47.6911 69.2876L48.4223 69.7637L48.8464 69.2113Z" fill="#DBDBDB"/>
<path d="M47.4622 67.9158L47.2595 66.9561L46.5912 67.1528L46.7718 68.0063L47.4622 67.9158Z" fill="#DBDBDB"/>
<path d="M47.3997 66.0207L47.9349 65.1987L47.3235 64.8654L46.8474 65.5966L47.3997 66.0207Z" fill="#DBDBDB"/>
<path d="M48.6953 64.6366L49.655 64.4339L49.4583 63.7659L48.6048 63.9462L48.6953 64.6366Z" fill="#DBDBDB"/>
<path d="M50.5904 64.5741L51.4121 65.1093L51.7457 64.4978L51.0145 64.0217L50.5904 64.5741Z" fill="#DBDBDB"/>
<path d="M51.9745 65.8696L52.1773 66.8293L52.8452 66.6326L52.665 65.7791L51.9745 65.8696Z" fill="#DBDBDB"/>
<path d="M52.037 67.7647L51.5018 68.5867L52.1133 68.92L52.5894 68.1888L52.037 67.7647Z" fill="#DBDBDB"/>
<path d="M50.7415 69.1489L49.7818 69.3516L49.9781 70.0195L50.832 69.8393L50.7415 69.1489Z" fill="#DBDBDB"/>
<path d="M68.2922 76.1288L69.4822 76.3502L72.8853 53.3017L71.5295 53.0527L68.2922 76.1288Z" fill="#34CAA5"/>
<path d="M57.8677 72.4763L59.6348 57.0761L71.5295 53.0527C71.5295 53.0527 68.2922 76.3779 68.2922 76.1288L57.8677 72.4763Z" fill="#34CAA5"/>
<path opacity="0.4" d="M57.8677 72.4763L59.6348 57.0761L71.5295 53.0527C71.5295 53.0527 68.2922 76.3779 68.2922 76.1288L57.8677 72.4763Z" fill="white"/>
<path d="M29.0394 57.7C28.8456 56.4243 28.7409 55.1381 28.6612 53.8508C28.6246 53.2067 28.6081 52.562 28.5939 51.9172C28.5812 51.2724 28.57 50.6269 28.5891 49.9817L28.5943 49.8123L28.7592 49.8033C31.1222 49.6766 33.4836 49.5213 35.848 49.4181C38.2117 49.3014 40.5754 49.1956 42.9409 49.1215C40.5829 49.3351 38.2237 49.5169 35.8637 49.6882C33.5045 49.8725 31.1427 50.0049 28.7824 50.1657L28.9522 49.9873L28.9425 51.9134L28.9649 53.8403C28.9683 54.4832 28.9799 55.1257 28.9986 55.7686L29.0394 57.7Z" fill="white"/>
<path d="M61.2939 57.302C62.0307 56.952 62.779 56.6266 63.5364 56.3263C64.2915 56.0189 65.0533 55.7279 65.8241 55.4608C66.5961 55.1972 67.3706 54.9391 68.1583 54.7203C68.9444 54.4989 69.7381 54.2943 70.5489 54.1616L70.7482 54.129L70.7127 54.3194C70.5261 55.3165 70.3309 56.3121 70.1001 57.302C70.1865 56.2893 70.3084 55.2817 70.4389 54.276L70.6027 54.4338C69.817 54.6212 69.0376 54.8404 68.2604 55.07C67.484 55.3023 66.7098 55.5469 65.9379 55.7982L61.2939 57.302Z" fill="white"/>
<path opacity="0.1" d="M34.1868 48.7176L34.3872 52.5694L34.5585 56.4224L34.8555 64.1298L35.0877 71.8394L35.1805 75.695L35.2441 79.5517L35.0432 75.6998L34.8719 71.8469L34.5754 64.1395L34.3438 56.4299L34.2507 52.5743L34.1868 48.7176Z" fill="black"/>
<path opacity="0.1" d="M33.0834 51.0394C33.1575 51.3711 32.9608 51.7668 32.5864 51.8768C32.405 51.9314 32.1926 51.9134 32.0157 51.8125C31.8388 51.7119 31.7082 51.5286 31.6664 51.3251C31.6263 51.1213 31.675 50.9014 31.7991 50.7402C31.9225 50.5783 32.1125 50.4791 32.3007 50.4593C32.6889 50.4159 33.0232 50.7054 33.0834 51.0394ZM33.0834 51.0394C33.0479 50.8718 32.9402 50.7219 32.794 50.6411C32.6474 50.5603 32.4742 50.5502 32.3283 50.5977C32.028 50.6953 31.884 51.0113 31.9409 51.2702C31.9884 51.5301 32.2434 51.7676 32.5587 51.7403C32.7113 51.7272 32.8673 51.6509 32.9709 51.5192C33.0748 51.388 33.1156 51.2077 33.0834 51.0394Z" fill="black"/>
<path opacity="0.1" d="M33.3486 55.6579C33.4226 55.9897 33.2259 56.3854 32.8515 56.4953C32.6701 56.5499 32.4577 56.532 32.2808 56.431C32.1039 56.3304 31.9734 56.1471 31.9315 55.9437C31.8915 55.7398 31.9401 55.5199 32.0643 55.3587C32.1877 55.1968 32.3777 55.0977 32.5658 55.0779C32.954 55.0345 33.2884 55.3239 33.3486 55.6579ZM33.3486 55.6579C33.313 55.4904 33.2053 55.3404 33.0591 55.2596C32.9125 55.1788 32.7393 55.1687 32.5935 55.2162C32.2932 55.3138 32.1492 55.6303 32.206 55.8887C32.2535 56.1486 32.5086 56.3861 32.8239 56.3588C32.9764 56.3457 33.1324 56.2691 33.2364 56.1378C33.34 56.0065 33.3811 55.8262 33.3486 55.6579Z" fill="black"/>
<path opacity="0.1" d="M33.5169 60.5607C33.591 60.8924 33.3942 61.2881 33.0199 61.3981C32.8385 61.4527 32.626 61.4347 32.4491 61.3338C32.2722 61.2332 32.1417 61.0499 32.0998 60.8464C32.0598 60.643 32.1084 60.4227 32.2326 60.2615C32.356 60.0992 32.546 60.0004 32.7341 59.9806C33.1223 59.9372 33.4567 60.2267 33.5169 60.5607ZM33.5169 60.5607C33.4814 60.3931 33.3737 60.2432 33.2274 60.1624C33.0808 60.0816 32.9077 60.0715 32.7618 60.119C32.4615 60.2166 32.3175 60.5326 32.3743 60.7911C32.4218 61.0514 32.6769 61.2885 32.9922 61.2612C33.1448 61.2481 33.3007 61.1718 33.4043 61.0402C33.5083 60.9089 33.5491 60.729 33.5169 60.5607Z" fill="black"/>
<path opacity="0.1" d="M33.6852 65.4631C33.7592 65.7948 33.5625 66.1905 33.1881 66.3005C33.0068 66.3551 32.7943 66.3371 32.6174 66.2362C32.4405 66.1355 32.31 65.9523 32.2681 65.7488C32.2281 65.545 32.2767 65.3251 32.4009 65.1639C32.5243 65.002 32.7139 64.9028 32.9024 64.883C33.2906 64.8396 33.625 65.1291 33.6852 65.4631ZM33.6852 65.4631C33.6497 65.2955 33.5423 65.1456 33.3957 65.0648C33.2491 64.984 33.0759 64.9739 32.9301 65.0214C32.6298 65.119 32.4858 65.435 32.5426 65.6938C32.5901 65.9538 32.8452 66.1913 33.1605 66.164C33.3131 66.1509 33.469 66.0746 33.5726 65.9429C33.6766 65.8117 33.7173 65.6314 33.6852 65.4631Z" fill="black"/>
<path opacity="0.1" d="M33.8535 70.3659C33.9276 70.6976 33.7308 71.0933 33.3565 71.2032C33.1751 71.2578 32.9626 71.2399 32.7857 71.1389C32.6088 71.0383 32.4783 70.8551 32.4364 70.6516C32.3964 70.4478 32.445 70.2279 32.5692 70.0667C32.6926 69.9047 32.8826 69.8056 33.0707 69.7858C33.459 69.7424 33.7933 70.0315 33.8535 70.3659ZM33.8535 70.3659C33.818 70.1983 33.7103 70.0483 33.564 69.9676C33.4174 69.8868 33.2443 69.8767 33.0984 69.9242C32.7981 70.0218 32.6541 70.3378 32.7109 70.5966C32.7584 70.8569 33.0135 71.094 33.3288 71.0667C33.4814 71.0536 33.6373 70.9774 33.7413 70.8457C33.8449 70.7141 33.8857 70.5338 33.8535 70.3659Z" fill="black"/>
<path opacity="0.1" d="M34.0218 75.2682C34.0958 75.6 33.8991 75.9957 33.5247 76.1056C33.3434 76.1602 33.1309 76.1423 32.954 76.0413C32.7771 75.9407 32.6466 75.7574 32.6047 75.554C32.5647 75.3505 32.6133 75.1302 32.7375 74.969C32.8609 74.8067 33.0505 74.708 33.239 74.6882C33.6272 74.6448 33.9612 74.9343 34.0218 75.2682ZM34.0218 75.2682C33.9863 75.1007 33.8786 74.9507 33.7323 74.8699C33.5857 74.7892 33.4125 74.7791 33.2667 74.8266C32.9664 74.9242 32.8224 75.2402 32.8792 75.499C32.9267 75.7593 33.1818 75.9964 33.4971 75.9691C33.6497 75.956 33.8056 75.8794 33.9092 75.7481C34.0132 75.6164 34.054 75.4365 34.0218 75.2682Z" fill="black"/>
<path d="M35.5353 82.765L18.0041 88.0775L18.6248 90.1259L36.156 84.8134L35.5353 82.765Z" fill="#34CAA5"/>
<path opacity="0.4" d="M35.5353 82.765L18.0041 88.0775L18.6248 90.1259L36.156 84.8134L35.5353 82.765Z" fill="white"/>
<path d="M27.1474 84.6113L25.1076 85.2601L26.0713 88.29L28.1111 87.6413L27.1474 84.6113Z" fill="#34CAA5"/>
<path d="M18.4877 93.1268L13.9638 73.537L0.309082 76.7744L7.03285 95.8659L18.4877 93.1268Z" fill="#34CAA5"/>
<path d="M21.5175 92.1308L18.4877 93.1268L13.9638 73.537L18.3217 74.5745L21.5175 92.1308Z" fill="#34CAA5"/>
<path opacity="0.2" d="M21.5175 92.1308L18.4877 93.1268L13.9638 73.537L18.3217 74.5745L21.5175 92.1308Z" fill="black"/>
<path d="M35.8533 86.1124C37.1368 86.1124 38.1773 85.0719 38.1773 83.7884C38.1773 82.5048 37.1368 81.4643 35.8533 81.4643C34.5697 81.4643 33.5292 82.5048 33.5292 83.7884C33.5292 85.0719 34.5697 86.1124 35.8533 86.1124Z" fill="#34CAA5"/>
<path d="M59.7679 82.7082L59.1429 84.7553L76.6631 90.1044L77.2881 88.0574L59.7679 82.7082Z" fill="#34CAA5"/>
<path opacity="0.4" d="M59.7679 82.7082L59.1429 84.7553L76.6631 90.1044L77.2881 88.0574L59.7679 82.7082Z" fill="white"/>
<path d="M68.168 84.5637L67.1977 87.5914L69.236 88.2446L70.2063 85.2169L68.168 84.5637Z" fill="#34CAA5"/>
<path d="M76.8055 93.1099L81.3713 73.5295L95.019 76.796L88.2548 95.8734L76.8055 93.1099Z" fill="#34CAA5"/>
<path d="M73.778 92.1072L76.8055 93.1099L81.3713 73.5295L77.0113 74.558L73.778 92.1072Z" fill="#34CAA5"/>
<path opacity="0.2" d="M73.778 92.1072L76.8055 93.1099L81.3713 73.5295L77.0113 74.558L73.778 92.1072Z" fill="black"/>
<path d="M57.1357 83.7296C57.1331 85.0132 58.1713 86.0559 59.4549 86.0589C60.7385 86.0615 61.7812 85.0233 61.7842 83.7397C61.7868 82.4562 60.7486 81.4134 59.465 81.4105C58.1811 81.4075 57.1384 82.4461 57.1357 83.7296Z" fill="#34CAA5"/>
<path d="M74.676 59.5673C74.731 59.5157 80.3619 54.2928 86.9862 56.0794C93.7601 57.9072 99.3529 68.1099 99.4082 68.2131L101.291 67.1955C101.046 66.7425 95.2131 56.0787 87.5431 54.0135C79.7425 51.9097 73.465 57.7662 73.2013 58.0167L74.676 59.5673Z" fill="#34CAA5"/>
<path opacity="0.4" d="M74.676 59.5673C74.731 59.5157 80.3619 54.2928 86.9862 56.0794C93.7601 57.9072 99.3529 68.1099 99.4082 68.2131L101.291 67.1955C101.046 66.7425 95.2131 56.0787 87.5431 54.0135C79.7425 51.9097 73.465 57.7662 73.2013 58.0167L74.676 59.5673Z" fill="white"/>
<path d="M96.9121 78.4843L100.969 76.3427C100.579 75.6056 100.1 74.3385 100.03 73.1944C99.94 71.7119 100.528 71.1905 101.177 70.8476C102.598 70.0969 103.447 70.3946 104.026 70.7357C104.839 71.2156 105.665 72.1973 106.353 73.5003L110.409 71.3588C109.299 69.2562 107.936 67.7176 106.357 66.7856C104.783 65.8573 102.234 65.1029 99.0357 66.7912C96.5426 68.1073 95.2699 70.4803 95.452 73.4727C95.5949 75.8274 96.6058 77.9038 96.9121 78.4843Z" fill="#34CAA5"/>
<path d="M75.5309 52.4202C76.4102 51.8129 77.3101 51.2406 78.2133 50.6736C79.1142 50.1033 80.0302 49.558 80.9461 49.0127C81.8665 48.4753 82.7873 47.9386 83.723 47.4266L85.127 46.6599C85.602 46.416 86.0703 46.1613 86.5512 45.9272C86.1137 46.2343 85.6637 46.5204 85.2202 46.8177L83.8693 47.6742C82.9679 48.2445 82.0524 48.7898 81.1361 49.3343C80.2153 49.8714 79.2945 50.4081 78.3588 50.9197C77.4253 51.4359 76.4884 51.9456 75.5309 52.4202Z" fill="white"/>
<path d="M73.2013 61.1722C74.4602 61.8895 75.6536 62.6992 76.831 63.5314C78.0016 64.3729 79.1558 65.2372 80.2433 66.1946C78.9837 65.4781 77.7906 64.6683 76.6137 63.8355C75.4438 62.9936 74.2896 62.1293 73.2013 61.1722Z" fill="white"/>
<path d="M75.2692 60.0958C76.2408 60.3909 77.1975 60.7245 78.1516 61.0637C79.1075 61.3988 80.053 61.7616 80.9981 62.1244C81.9402 62.4954 82.8819 62.8672 83.8132 63.2658L85.2097 63.865C85.6701 64.0774 86.1354 64.2779 86.5916 64.5012C86.1047 64.3572 85.626 64.1904 85.1431 64.0359L83.7089 63.534C82.7529 63.1985 81.8074 62.8361 80.8627 62.473C79.921 62.1016 78.9789 61.7298 78.048 61.3308C77.1152 60.9354 76.1851 60.5349 75.2692 60.0958Z" fill="white"/>
<path d="M78.0297 53.2412C78.9609 52.9992 79.8989 52.7976 80.8384 52.602C81.7768 52.4023 82.7207 52.2317 83.6644 52.0608C84.6094 51.8989 85.5549 51.7377 86.5052 51.6049L87.9309 51.4071C88.4085 51.3547 88.8839 51.2896 89.3637 51.2485C88.8988 51.3734 88.4299 51.4744 87.9627 51.5877L86.555 51.888C85.6162 52.0874 84.6726 52.2583 83.729 52.4285C82.7836 52.5897 81.8385 52.7512 80.8881 52.8836C79.9386 53.0209 78.9875 53.1514 78.0297 53.2412Z" fill="white"/>
</svg>
